# xmcd CD database file
#
# Track frame offsets:
#	150
#	11342
#	28406
#	44748
#	63150
#	77765
#	96044
#	120504
#	137813
#	153808
#	173522
#	194719
#
# Disc length: 2821 seconds
#
# Revision: 8
# Processed by: cddbd v1.5.1PL0 Copyright (c) Steve Scherf et al.
# Submitted via: CDex 1.51
#
DISCID=980b030c
DTITLE=ASIAN KUNG-FU FU GENERATION - Solfa
DYEAR=2004
DGENRE=Other
TTITLE0=Shindoutou
TTITLE1=Rewrite
TTITLE2=Kimi no Machi made
TTITLE3=My World
TTITLE4=Yoru no Mukou
TTITLE5=Last Seen
TTITLE6=Siren
TTITLE7=Re:Re:
TTITLE8=24ji
TTITLE9=Mayonaka to Mahiru no Yume
TTITLE10=Kaigan Dohri
TTITLE11=Loop&Loop
EXTD=YEAR: 2004
EXTT0=
EXTT1=
EXTT2=
EXTT3=
EXTT4=
EXTT5=
EXTT6=
EXTT7=
EXTT8=
EXTT9=
EXTT10=
EXTT11=
PLAYORDER=
